<svg width="20" height="20" viewBox="0 0 20 20" fill="none" xmlns="http://www.w3.org/2000/svg">
<path d="M9.99889 16.6941C9.62198 16.6941 9.31641 16.9997 9.31641 17.3766V19.317C9.31641 19.6939 9.62198 19.9995 9.99889 19.9995C10.3759 19.9995 10.6814 19.6939 10.6814 19.317V17.3766C10.6814 16.9996 10.3758 16.6941 9.99889 16.6941Z" fill="#898989"/>
<path d="M9.99889 3.30558C10.3759 3.30558 10.6814 3.00001 10.6814 2.6231V0.682482C10.6814 0.30557 10.3759 0 9.99889 0C9.62198 0 9.31641 0.30557 9.31641 0.682482V2.6231C9.31641 3.00001 9.62198 3.30558 9.99889 3.30558Z" fill="#898989"/>
<path d="M4.3014 14.7332L2.9288 16.1051C2.66217 16.3715 2.66208 16.8036 2.92852 17.0702C3.06183 17.2035 3.23655 17.2702 3.41126 17.2702C3.58589 17.2702 3.76042 17.2036 3.89373 17.0704L5.26634 15.6986C5.53297 15.4321 5.53306 15 5.26661 14.7334C4.99999 14.4668 4.56794 14.4668 4.3014 14.7332Z" fill="#898989"/>
<path d="M15.2156 5.46569C15.3903 5.46569 15.5649 5.39908 15.6982 5.26586L17.0706 3.89398C17.3371 3.62745 17.3372 3.1954 17.0708 2.92877C16.8043 2.66215 16.3722 2.66206 16.1056 2.92868L14.7332 4.30056C14.4666 4.567 14.4665 4.99915 14.733 5.26568C14.8662 5.39908 15.0409 5.46569 15.2156 5.46569Z" fill="#898989"/>
<path d="M3.3054 9.99986C3.3054 9.62295 2.99983 9.31738 2.62292 9.31738H0.682482C0.30557 9.31738 0 9.62295 0 9.99986C0 10.3768 0.30557 10.6823 0.682482 10.6823H2.62292C2.99983 10.6823 3.3054 10.3768 3.3054 9.99986Z" fill="#898989"/>
<path d="M19.3174 9.31738H17.3761C16.9991 9.31738 16.6936 9.62295 16.6936 9.99986C16.6936 10.3768 16.9991 10.6823 17.3761 10.6823H19.3174C19.6944 10.6823 19.9999 10.3768 19.9999 9.99986C19.9999 9.62304 19.6944 9.31738 19.3174 9.31738Z" fill="#898989"/>
<path d="M4.30127 5.26575C4.43449 5.39897 4.60921 5.46558 4.78383 5.46558C4.95846 5.46558 5.13317 5.39897 5.26639 5.26575C5.53292 4.99922 5.53292 4.56707 5.26639 4.30054L3.89451 2.92866C3.62798 2.66213 3.19583 2.66213 2.92939 2.92866C2.66286 3.19519 2.66286 3.62734 2.92939 3.89378L4.30127 5.26575Z" fill="#898989"/>
<path d="M15.6989 14.7331C15.4324 14.4666 15.0002 14.4665 14.7337 14.7331C14.467 14.9996 14.467 15.4317 14.7336 15.6982L16.1053 17.0701C16.2386 17.2034 16.4132 17.27 16.5879 17.27C16.7626 17.27 16.9373 17.2034 17.0705 17.0701C17.3371 16.8036 17.3371 16.3715 17.0706 16.105L15.6989 14.7331Z" fill="#898989"/>
<path d="M9.99955 4.68774C7.07061 4.68774 4.68774 7.07079 4.68774 9.99991C4.68774 12.9289 7.07061 15.3119 9.99955 15.3119C12.9288 15.3119 15.3118 12.9289 15.3118 9.99991C15.3118 7.07079 12.9287 4.68774 9.99955 4.68774ZM9.99955 13.9469C7.82325 13.9469 6.05271 12.1763 6.05271 9.99991C6.05271 7.82343 7.82325 6.05271 9.99955 6.05271C12.1761 6.05271 13.9468 7.82343 13.9468 9.99991C13.9468 12.1763 12.1761 13.9469 9.99955 13.9469Z" fill="#898989"/>
</svg>
