<svg width="20" height="20" viewBox="0 0 20 20" fill="none" xmlns="http://www.w3.org/2000/svg">
<path d="M9.9989 16.6941C9.62199 16.6941 9.31642 16.9997 9.31642 17.3766V19.317C9.31642 19.6939 9.62199 19.9995 9.9989 19.9995C10.3759 19.9995 10.6814 19.6939 10.6814 19.317V17.3766C10.6814 16.9996 10.3758 16.6941 9.9989 16.6941Z" fill="#898989"/>
<path d="M9.9989 3.30558C10.3759 3.30558 10.6814 3.00001 10.6814 2.6231V0.682482C10.6814 0.30557 10.3759 0 9.9989 0C9.62199 0 9.31642 0.30557 9.31642 0.682482V2.6231C9.31642 3.00001 9.62199 3.30558 9.9989 3.30558Z" fill="#898989"/>
<path d="M4.30136 14.7332L2.92875 16.1051C2.66213 16.3715 2.66204 16.8036 2.92848 17.0702C3.06179 17.2035 3.2365 17.2702 3.41122 17.2702C3.58584 17.2702 3.76038 17.2036 3.89369 17.0704L5.2663 15.6986C5.53292 15.4321 5.53301 15 5.26657 14.7334C4.99995 14.4668 4.56789 14.4668 4.30136 14.7332Z" fill="#898989"/>
<path d="M15.2155 5.46569C15.3902 5.46569 15.5648 5.39908 15.6981 5.26586L17.0705 3.89398C17.337 3.62745 17.3371 3.1954 17.0707 2.92877C16.8042 2.66215 16.3721 2.66206 16.1055 2.92868L14.7331 4.30056C14.4665 4.567 14.4664 4.99915 14.7329 5.26568C14.8661 5.39908 15.0408 5.46569 15.2155 5.46569Z" fill="#898989"/>
<path d="M3.3054 9.99986C3.3054 9.62295 2.99983 9.31738 2.62292 9.31738H0.682482C0.30557 9.31738 0 9.62295 0 9.99986C0 10.3768 0.30557 10.6823 0.682482 10.6823H2.62292C2.99983 10.6823 3.3054 10.3768 3.3054 9.99986Z" fill="#898989"/>
<path d="M19.3175 9.31738H17.3762C16.9992 9.31738 16.6937 9.62295 16.6937 9.99986C16.6937 10.3768 16.9992 10.6823 17.3762 10.6823H19.3175C19.6945 10.6823 20 10.3768 20 9.99986C20 9.62304 19.6945 9.31738 19.3175 9.31738Z" fill="#898989"/>
<path d="M4.30119 5.26575C4.43441 5.39897 4.60912 5.46558 4.78375 5.46558C4.95837 5.46558 5.13309 5.39897 5.26631 5.26575C5.53284 4.99922 5.53284 4.56707 5.26631 4.30054L3.89443 2.92866C3.6279 2.66213 3.19575 2.66213 2.92931 2.92866C2.66278 3.19519 2.66278 3.62734 2.92931 3.89378L4.30119 5.26575Z" fill="#898989"/>
<path d="M15.6989 14.7331C15.4324 14.4666 15.0002 14.4665 14.7337 14.7331C14.4671 14.9996 14.4671 15.4317 14.7336 15.6982L16.1053 17.0701C16.2386 17.2034 16.4132 17.27 16.588 17.27C16.7626 17.27 16.9373 17.2034 17.0705 17.0701C17.3371 16.8036 17.3371 16.3715 17.0706 16.105L15.6989 14.7331Z" fill="#898989"/>
<path d="M9.99964 4.68774C7.0707 4.68774 4.68784 7.07079 4.68784 9.99991C4.68784 12.9289 7.0707 15.3119 9.99964 15.3119C12.9289 15.3119 15.3119 12.9289 15.3119 9.99991C15.3119 7.07079 12.9288 4.68774 9.99964 4.68774ZM9.99964 13.9469C7.82334 13.9469 6.0528 12.1763 6.0528 9.99991C6.0528 7.82343 7.82334 6.05271 9.99964 6.05271C12.1762 6.05271 13.9469 7.82343 13.9469 9.99991C13.9469 12.1763 12.1762 13.9469 9.99964 13.9469Z" fill="#898989"/>
</svg>
