<svg width="20" height="20" viewBox="0 0 20 20" fill="none" xmlns="http://www.w3.org/2000/svg">
<path d="M9.99889 16.6941C9.62198 16.6941 9.31641 16.9997 9.31641 17.3766V19.317C9.31641 19.6939 9.62198 19.9995 9.99889 19.9995C10.3759 19.9995 10.6814 19.6939 10.6814 19.317V17.3766C10.6814 16.9996 10.3758 16.6941 9.99889 16.6941Z" fill="#898989"/>
<path d="M9.99889 3.30558C10.3759 3.30558 10.6814 3.00001 10.6814 2.6231V0.682482C10.6814 0.30557 10.3759 0 9.99889 0C9.62198 0 9.31641 0.30557 9.31641 0.682482V2.6231C9.31641 3.00001 9.62198 3.30558 9.99889 3.30558Z" fill="#898989"/>
<path d="M4.30134 14.7332L2.92873 16.1051C2.66211 16.3715 2.66202 16.8036 2.92846 17.0702C3.06177 17.2035 3.23649 17.2702 3.4112 17.2702C3.58583 17.2702 3.76036 17.2036 3.89367 17.0704L5.26628 15.6986C5.5329 15.4321 5.53299 15 5.26655 14.7334C4.99993 14.4668 4.56787 14.4668 4.30134 14.7332Z" fill="#898989"/>
<path d="M15.2155 5.46569C15.3901 5.46569 15.5648 5.39908 15.6981 5.26586L17.0705 3.89398C17.337 3.62745 17.3371 3.1954 17.0707 2.92877C16.8041 2.66215 16.3721 2.66206 16.1055 2.92868L14.733 4.30056C14.4665 4.567 14.4664 4.99915 14.7329 5.26568C14.8661 5.39908 15.0408 5.46569 15.2155 5.46569Z" fill="#898989"/>
<path d="M3.3054 9.99986C3.3054 9.62295 2.99983 9.31738 2.62292 9.31738H0.682482C0.30557 9.31738 0 9.62295 0 9.99986C0 10.3768 0.30557 10.6823 0.682482 10.6823H2.62292C2.99983 10.6823 3.3054 10.3768 3.3054 9.99986Z" fill="#898989"/>
<path d="M19.3176 9.31738H17.3762C16.9992 9.31738 16.6937 9.62295 16.6937 9.99986C16.6937 10.3768 16.9992 10.6823 17.3762 10.6823H19.3176C19.6946 10.6823 20 10.3768 20 9.99986C20 9.62304 19.6946 9.31738 19.3176 9.31738Z" fill="#898989"/>
<path d="M4.30121 5.26575C4.43443 5.39897 4.60915 5.46558 4.78377 5.46558C4.95839 5.46558 5.13311 5.39897 5.26633 5.26575C5.53286 4.99922 5.53286 4.56707 5.26633 4.30054L3.89445 2.92866C3.62792 2.66213 3.19577 2.66213 2.92933 2.92866C2.6628 3.19519 2.6628 3.62734 2.92933 3.89378L4.30121 5.26575Z" fill="#898989"/>
<path d="M15.6989 14.7331C15.4324 14.4666 15.0002 14.4665 14.7337 14.7331C14.467 14.9996 14.467 15.4317 14.7336 15.6982L16.1053 17.0701C16.2386 17.2034 16.4132 17.27 16.5879 17.27C16.7626 17.27 16.9373 17.2034 17.0705 17.0701C17.3371 16.8036 17.3371 16.3715 17.0706 16.105L15.6989 14.7331Z" fill="#898989"/>
<path d="M9.99961 4.68774C7.07067 4.68774 4.68781 7.07079 4.68781 9.99991C4.68781 12.9289 7.07067 15.3119 9.99961 15.3119C12.9288 15.3119 15.3119 12.9289 15.3119 9.99991C15.3119 7.07079 12.9287 4.68774 9.99961 4.68774ZM9.99961 13.9469C7.82331 13.9469 6.05277 12.1763 6.05277 9.99991C6.05277 7.82343 7.82331 6.05271 9.99961 6.05271C12.1762 6.05271 13.9469 7.82343 13.9469 9.99991C13.9469 12.1763 12.1762 13.9469 9.99961 13.9469Z" fill="#898989"/>
</svg>
