<svg width="20" height="20" viewBox="0 0 20 20" fill="none" xmlns="http://www.w3.org/2000/svg">
<path d="M19.4527 8.81518C19.3879 8.40889 19.006 8.1321 18.5997 8.19692C18.1934 8.26174 17.9166 8.64368 17.9814 9.04998C17.9821 9.05443 17.9828 9.05884 17.9836 9.06325C18.7423 13.5292 15.7369 17.7645 11.271 18.5231C6.8051 19.2817 2.56979 16.2764 1.81115 11.8105C1.0525 7.34461 4.05788 3.1093 8.52375 2.35066C11.2702 1.88412 14.0657 2.84347 15.9469 4.89813L12.6467 5.99769C12.2563 6.12759 12.0452 6.54934 12.175 6.93975C12.1751 6.93984 12.1751 6.93997 12.1751 6.94005C12.3051 7.33046 12.7268 7.5416 13.1172 7.41174C13.1173 7.4117 13.1174 7.41165 13.1175 7.41165L17.5873 5.92173C17.8916 5.82038 18.0969 5.53556 18.0969 5.21477V0.74498C18.0969 0.333532 17.7634 0 17.3519 0C16.9405 0 16.6069 0.333532 16.6069 0.74498V3.46632C12.7704 -0.182677 6.70217 -0.0306424 3.05318 3.80587C-0.595823 7.64239 -0.443833 13.7106 3.39273 17.3596C7.2293 21.0087 13.2975 20.8567 16.9465 17.0201C19.0273 14.8323 19.9559 11.7922 19.4527 8.81518Z" fill="white"/>
</svg>
