<svg width="14" height="14" viewBox="0 0 14 14" fill="none" xmlns="http://www.w3.org/2000/svg">
<path d="M12.6289 4.90531C12.663 5.01004 12.9355 5.23103 13.0992 5.36351L13.1002 5.3643C13.501 5.68989 14 6.09529 14 6.7144C14 7.33923 13.4938 7.75694 13.0865 8.0925L13.0782 8.09937C12.9171 8.23252 12.656 8.44829 12.6219 8.54665C12.5902 8.65059 12.6777 8.99589 12.7304 9.20373L12.7307 9.20504C12.8655 9.73671 13.0182 10.3401 12.6624 10.8278C12.3096 11.3123 11.6958 11.3541 11.154 11.3911L11.1507 11.3913C10.9332 11.4058 10.5693 11.4301 10.4773 11.4978C10.3851 11.5655 10.2515 11.894 10.169 12.0969L10.1649 12.107L10.1637 12.1099C9.95974 12.6125 9.72927 13.1805 9.16459 13.3728C8.5917 13.569 8.0516 13.2255 7.61832 12.9499L7.61469 12.9476C7.41913 12.8226 7.12294 12.634 6.9997 12.634C6.87488 12.634 6.57887 12.821 6.37931 12.9472L6.37314 12.951L6.36598 12.9556C6.00569 13.1824 5.60662 13.4336 5.17442 13.4336C5.0645 13.4336 4.95168 13.4173 4.83771 13.3797C4.26983 13.1964 4.0378 12.6229 3.83306 12.1169L3.8328 12.1162L3.83256 12.1156C3.74982 11.9113 3.61229 11.5718 3.52097 11.5053C3.42956 11.4387 3.07029 11.4156 2.85564 11.4005L2.85438 11.4005C2.33797 11.3658 1.69655 11.3226 1.33178 10.8405C0.957936 10.3448 1.12194 9.71395 1.25376 9.20691L1.25426 9.20501C1.30864 8.99845 1.39888 8.6525 1.36418 8.54605C1.32888 8.43843 1.06796 8.22148 0.894988 8.07801C0.496398 7.74709 0 7.33459 0 6.71383C0 6.08956 0.505294 5.67265 0.91187 5.33719L0.91298 5.33628L0.916203 5.33362C1.07739 5.20086 1.34366 4.98154 1.37813 4.88213C1.40995 4.7793 1.32348 4.43929 1.26995 4.22877L1.26705 4.2174C1.13168 3.69035 0.978387 3.0933 1.32029 2.60907C1.66836 2.11647 2.28742 2.07455 2.83388 2.03754L2.83489 2.03747C3.05359 2.02301 3.4198 1.9987 3.51121 1.93102C3.60421 1.86269 3.73942 1.52939 3.82175 1.32643L3.82361 1.32183L3.8258 1.31646C4.02949 0.815603 4.2601 0.24856 4.82448 0.0565826C5.40012 -0.13898 5.94625 0.21277 6.38304 0.496844L6.38616 0.498865C6.58401 0.6273 6.87947 0.81909 6.99975 0.81909C7.12423 0.81909 7.4195 0.633062 7.61963 0.50697L7.62746 0.50204L7.62785 0.501794C8.0819 0.214334 8.59783 -0.112294 9.16232 0.0721959C9.72986 0.255016 9.96242 0.828934 10.1667 1.33515C10.2494 1.53938 10.3876 1.88014 10.4796 1.94666C10.5683 2.01108 10.9137 2.03522 11.1297 2.05033L11.145 2.05139L11.1463 2.05148C11.6644 2.08619 12.3087 2.12935 12.6671 2.61779C13.0272 3.10976 12.8669 3.73462 12.7379 4.23717L12.7376 4.23826C12.6838 4.44654 12.5942 4.79654 12.6289 4.90531Z" fill="url(#paint0_linear)"/>
<path d="M9.58714 4.53452C9.34069 4.32857 8.97677 4.36212 8.77257 4.60685L6.19287 7.69102L5.09537 6.59413C4.86916 6.36792 4.50352 6.36792 4.27733 6.59413C4.05111 6.82034 4.05111 7.18598 4.27733 7.41217L5.82203 8.95687C5.93021 9.06622 6.07775 9.12637 6.23107 9.12637C6.23916 9.12637 6.24786 9.12637 6.25595 9.12523C6.41909 9.11828 6.5701 9.04309 6.67423 8.9187L9.65944 5.34909C9.86424 5.10382 9.83244 4.73933 9.58714 4.53452Z" fill="white"/>
<defs>
<linearGradient id="paint0_linear" x1="7" y1="0" x2="7" y2="13.4336" gradientUnits="userSpaceOnUse">
<stop stop-color="#FCA963"/>
<stop offset="1" stop-color="#FD4857"/>
</linearGradient>
</defs>
</svg>
