<svg width="34" height="13" viewBox="0 0 34 13" fill="none" xmlns="http://www.w3.org/2000/svg">
<path d="M0.00400007 13H7.94V11.24H2.084V1.8H0.00400007V13ZM10.3981 3.048C11.1501 3.048 11.6781 2.504 11.6781 1.8C11.6781 1.144 11.1341 0.648 10.3981 0.648C9.66213 0.648 9.11813 1.176 9.11813 1.848C9.11813 2.52 9.66213 3.048 10.3981 3.048ZM9.39013 13H11.3901V4.456H9.39013V13ZM18.8631 4.36C17.6151 4.36 16.5751 4.776 15.9191 5.56V4.456H14.0151V13H16.0151V8.68C16.0151 6.968 16.9751 6.104 18.3991 6.104C19.6791 6.104 20.4311 6.84 20.4311 8.36V13H22.4311V8.104C22.4311 5.528 20.9111 4.36 18.8631 4.36ZM31.4163 13H33.8483L29.9443 8.04L33.5123 4.456H31.1123L26.9683 8.296V1.128H24.9683V13H26.9683V10.744L28.4563 9.336L31.4163 13Z" fill="url(#paint0_linear)"/>
<defs>
<linearGradient id="paint0_linear" x1="16.5" y1="-3" x2="16.5" y2="17" gradientUnits="userSpaceOnUse">
<stop stop-color="#FCA963"/>
<stop offset="1" stop-color="#FD4857"/>
</linearGradient>
</defs>
</svg>
