<svg width="59" height="12" viewBox="0 0 59 12" fill="none" xmlns="http://www.w3.org/2000/svg">
<path d="M6.968 1.27806V7.91406L1.564 1.27806H0.0660001V11.0781H1.872V4.44206L7.276 11.0781H8.774V1.27806H6.968ZM18.26 7.38206C18.26 5.04406 16.664 3.51806 14.48 3.51806C12.254 3.51806 10.616 5.11406 10.616 7.34006C10.616 9.56606 12.24 11.1761 14.746 11.1761C16.034 11.1761 17.084 10.7561 17.756 9.95806L16.818 8.88006C16.286 9.42606 15.628 9.69206 14.788 9.69206C13.486 9.69206 12.576 8.99206 12.366 7.90006H18.232C18.246 7.73206 18.26 7.52206 18.26 7.38206ZM14.48 4.91806C15.628 4.91806 16.454 5.66006 16.594 6.73806H12.352C12.52 5.64606 13.346 4.91806 14.48 4.91806ZM29.9123 3.60206L27.8823 9.14606L25.8663 3.60206H24.3963L22.3383 9.11806L20.3643 3.60206H18.7123L21.4563 11.0781H23.1363L25.0963 5.92606L27.0283 11.0781H28.7083L31.4663 3.60206H29.9123ZM43.6506 5.98206C44.4066 5.57606 44.9106 4.83406 44.9106 3.82606C44.9106 2.27206 43.6506 1.27806 41.2986 1.27806H36.7066V11.0781H41.5786C44.0986 11.0781 45.4146 10.0981 45.4146 8.41806C45.4146 7.14406 44.7006 6.31806 43.6506 5.98206ZM41.1026 2.70606C42.3626 2.70606 43.0766 3.15406 43.0766 4.06406C43.0766 4.96006 42.3626 5.40806 41.1026 5.40806H38.5266V2.70606H41.1026ZM41.4666 9.65006H38.5266V6.82206H41.4666C42.8386 6.82206 43.5806 7.25606 43.5806 8.23606C43.5806 9.21606 42.8386 9.65006 41.4666 9.65006ZM48.071 2.37006C48.729 2.37006 49.191 1.89406 49.191 1.27806C49.191 0.704063 48.715 0.270064 48.071 0.270064C47.427 0.270064 46.951 0.732064 46.951 1.32006C46.951 1.90806 47.427 2.37006 48.071 2.37006ZM47.189 11.0781H48.939V3.60206H47.189V11.0781ZM56.8079 0.690063V4.52606C56.2199 3.84006 55.3659 3.51806 54.3999 3.51806C52.2299 3.51806 50.6199 5.01606 50.6199 7.34006C50.6199 9.66406 52.2299 11.1761 54.3999 11.1761C55.4219 11.1761 56.2899 10.8261 56.8779 10.1121V11.0781H58.5579V0.690063H56.8079ZM54.6099 9.67806C53.3499 9.67806 52.3839 8.76806 52.3839 7.34006C52.3839 5.91206 53.3499 5.00206 54.6099 5.00206C55.8699 5.00206 56.8359 5.91206 56.8359 7.34006C56.8359 8.76806 55.8699 9.67806 54.6099 9.67806Z" fill="url(#paint0_linear)"/>
<defs>
<linearGradient id="paint0_linear" x1="29.25" y1="-2.92194" x2="29.25" y2="14.0781" gradientUnits="userSpaceOnUse">
<stop stop-color="#FCA963"/>
<stop offset="1" stop-color="#FD4857"/>
</linearGradient>
</defs>
</svg>
