<svg width="75" height="16" viewBox="0 0 75 16" fill="none" xmlns="http://www.w3.org/2000/svg">
<path d="M8.552 6.176C9.464 5.696 10.04 4.832 10.04 3.712C10.04 1.968 8.6 0.799999 5.8 0.799999H0.328V12H6.12C9.064 12 10.6 10.88 10.6 8.944C10.6 7.536 9.8 6.576 8.552 6.176ZM5.48 2.752C6.744 2.752 7.432 3.184 7.432 4.064C7.432 4.944 6.744 5.392 5.48 5.392H2.904V2.752H5.48ZM5.928 10.048H2.904V7.28H5.928C7.272 7.28 7.992 7.728 7.992 8.672C7.992 9.632 7.272 10.048 5.928 10.048ZM18.5624 3.392V7.648C18.5624 9.232 17.7304 9.968 16.5784 9.968C15.4744 9.968 14.8344 9.328 14.8344 7.888V3.392H12.3384V8.256C12.3384 10.912 13.8584 12.128 16.0184 12.128C17.0744 12.128 18.0344 11.728 18.6904 10.976V12H21.0584V3.392H18.5624ZM29.5148 3.392L27.0828 9.232L24.6668 3.392H22.0907L25.8188 12.064L25.7868 12.144C25.4508 12.912 25.0668 13.216 24.3788 13.216C23.8828 13.216 23.3548 13.008 22.9708 12.672L22.0587 14.448C22.6188 14.944 23.5788 15.232 24.4588 15.232C26.0108 15.232 27.1948 14.608 28.0268 12.528L31.9148 3.392H29.5148ZM45.3525 0.799999V7.6L39.7845 0.799999H37.6405V12H40.2005V5.2L45.7845 12H47.9125V0.799999H45.3525ZM54.4824 12.128C57.2184 12.128 59.2024 10.288 59.2024 7.696C59.2024 5.104 57.2184 3.264 54.4824 3.264C51.7464 3.264 49.7464 5.104 49.7464 7.696C49.7464 10.288 51.7464 12.128 54.4824 12.128ZM54.4824 10.08C53.2344 10.08 52.2744 9.184 52.2744 7.696C52.2744 6.208 53.2344 5.312 54.4824 5.312C55.7304 5.312 56.6744 6.208 56.6744 7.696C56.6744 9.184 55.7304 10.08 54.4824 10.08ZM72.2524 3.392L70.1564 9.216L68.1084 3.392H65.9964L63.8844 9.216L61.8524 3.392H59.5004L62.6044 12H65.0044L67.0044 6.656L68.9404 12H71.3404L74.4604 3.392H72.2524Z" fill="url(#paint0_linear)"/>
<defs>
<linearGradient id="paint0_linear" x1="37" y1="-4" x2="37" y2="16" gradientUnits="userSpaceOnUse">
<stop stop-color="#FCA963"/>
<stop offset="1" stop-color="#FD4857"/>
</linearGradient>
</defs>
</svg>
