<svg width="11" height="10" viewBox="0 0 11 10" fill="none" xmlns="http://www.w3.org/2000/svg">
<path d="M9.29462 3.59723C9.31965 3.67403 9.51947 3.83609 9.63954 3.93324L9.64025 3.93382C9.93416 4.17259 10.3001 4.46988 10.3001 4.9239C10.3001 5.38211 9.92889 5.68842 9.63021 5.9345L9.6241 5.93955C9.50597 6.03719 9.31454 6.19541 9.28953 6.26755C9.26626 6.34377 9.33043 6.59699 9.36906 6.74941L9.3693 6.75036C9.46813 7.14025 9.58014 7.58276 9.31923 7.94041C9.06051 8.29566 8.61039 8.32637 8.21302 8.35348L8.21063 8.35364C8.05109 8.36425 7.78424 8.38208 7.71678 8.43171C7.6492 8.48137 7.55121 8.72228 7.49069 8.87107L7.48769 8.87845L7.4868 8.88063C7.33725 9.24919 7.16824 9.66571 6.75414 9.80672C6.33403 9.95057 5.93796 9.69867 5.62022 9.49659L5.61755 9.49489C5.47414 9.40325 5.25693 9.26493 5.16656 9.26493C5.07502 9.26493 4.85793 9.40211 4.71159 9.49459L4.70709 9.49744L4.70184 9.50074C4.43762 9.66706 4.14497 9.85127 3.82802 9.85127C3.74741 9.85127 3.66468 9.83938 3.5811 9.81181C3.16466 9.67738 2.9945 9.25681 2.84436 8.8857L2.84417 8.88523L2.84399 8.8848C2.78332 8.73498 2.68246 8.48596 2.61549 8.4372C2.55055 8.38992 2.30122 8.37252 2.1426 8.36145L2.12759 8.3604L2.12667 8.36034C1.74796 8.33488 1.27758 8.30327 1.01008 7.94971C0.735934 7.58616 0.856203 7.12356 0.952874 6.75173L0.953236 6.75034C0.99312 6.59887 1.05929 6.34517 1.03385 6.2671C1.00796 6.18818 0.816621 6.02909 0.689772 5.92387C0.397473 5.6812 0.0334473 5.3787 0.0334473 4.92347C0.0334473 4.46568 0.403997 4.15995 0.702153 3.91394L0.702966 3.91327L0.70533 3.91132C0.823535 3.81396 1.0188 3.65313 1.04407 3.58023C1.06741 3.50482 1.004 3.25548 0.964741 3.1011L0.962621 3.09276C0.863343 2.70626 0.750931 2.26842 1.00166 1.91332C1.25691 1.55208 1.71089 1.52134 2.11163 1.4942L2.11237 1.49415C2.27274 1.48354 2.5413 1.46571 2.60834 1.41608C2.67654 1.36597 2.77569 1.12155 2.83606 0.972714L2.83743 0.969344L2.83903 0.965405C2.98841 0.598109 3.15752 0.182277 3.5714 0.0414939C3.99353 -0.101919 4.39403 0.156031 4.71435 0.364353L4.71663 0.365836C4.86173 0.460021 5.07839 0.600666 5.1666 0.600666C5.25788 0.600666 5.47441 0.464244 5.62118 0.371777L5.62691 0.368162L5.6272 0.367983C5.96018 0.157178 6.33852 -0.0823494 6.75248 0.0529437C7.16868 0.187012 7.33922 0.607885 7.48899 0.979109C7.54965 1.12888 7.65105 1.37877 7.71851 1.42755C7.78357 1.47479 8.03682 1.4925 8.19525 1.50357L8.20642 1.50435L8.20738 1.50442C8.58735 1.52987 9.05981 1.56153 9.32263 1.91971C9.58675 2.28049 9.46916 2.73872 9.37459 3.10726L9.37439 3.10806C9.33493 3.2608 9.26918 3.51746 9.29462 3.59723Z" fill="url(#paint0_linear)"/>
<path d="M7.06393 3.3252C6.8832 3.17417 6.61633 3.19877 6.46658 3.37824L4.5748 5.63996L3.76997 4.83558C3.60408 4.66969 3.33594 4.66969 3.17007 4.83558C3.00418 5.00147 3.00418 5.2696 3.17007 5.43547L4.30286 6.56825C4.38218 6.64844 4.49038 6.69256 4.60282 6.69256C4.60875 6.69256 4.61513 6.69256 4.62106 6.69171C4.74069 6.68662 4.85144 6.63148 4.9278 6.54026L7.11695 3.92255C7.26714 3.74268 7.24382 3.47539 7.06393 3.3252Z" fill="white"/>
<defs>
<linearGradient id="paint0_linear" x1="5.16678" y1="0" x2="5.16678" y2="9.85127" gradientUnits="userSpaceOnUse">
<stop stop-color="#FCA963"/>
<stop offset="1" stop-color="#FD4857"/>
</linearGradient>
</defs>
</svg>
