<svg width="65" height="13" viewBox="0 0 65 13" fill="none" xmlns="http://www.w3.org/2000/svg">
<path d="M11.04 10L11.026 0.199999H9.528L5.706 6.696L1.814 0.199999H0.316V10H2.052V3.588L5.272 8.88H6.084L9.304 3.504L9.318 10H11.04ZM18.8391 2.524L16.4731 8.054L14.1211 2.524H12.3011L15.5631 10.028L15.4371 10.322C15.1011 11.064 14.7371 11.358 14.1211 11.358C13.6451 11.358 13.1691 11.162 12.8331 10.84L12.1331 12.128C12.6091 12.562 13.3931 12.814 14.1351 12.814C15.3811 12.814 16.3331 12.296 17.0191 10.602L20.5191 2.524H18.8391ZM25.65 10H27.47V0.199999H25.65V10ZM33.9567 8.348C33.6907 8.558 33.3407 8.656 32.9767 8.656C32.3047 8.656 31.9407 8.264 31.9407 7.536V3.98H33.9427V2.58H31.9407V0.872H30.1907V2.58H28.9587V3.98H30.1907V7.578C30.1907 9.23 31.1287 10.098 32.7667 10.098C33.3967 10.098 34.0267 9.93 34.4467 9.594L33.9567 8.348ZM42.6682 6.304C42.6682 3.966 41.0722 2.44 38.8882 2.44C36.6622 2.44 35.0242 4.036 35.0242 6.262C35.0242 8.488 36.6482 10.098 39.1542 10.098C40.4422 10.098 41.4922 9.678 42.1642 8.88L41.2262 7.802C40.6942 8.348 40.0362 8.614 39.1962 8.614C37.8942 8.614 36.9842 7.914 36.7742 6.822H42.6402C42.6542 6.654 42.6682 6.444 42.6682 6.304ZM38.8882 3.84C40.0362 3.84 40.8622 4.582 41.0022 5.66H36.7602C36.9282 4.568 37.7542 3.84 38.8882 3.84ZM53.7852 2.44C52.5952 2.44 51.5872 2.916 50.9852 3.686C50.4672 2.846 49.5572 2.44 48.4652 2.44C47.4432 2.44 46.5752 2.804 46.0152 3.476V2.524H44.3492V10H46.0992V6.206C46.0992 4.722 46.8832 3.966 48.0452 3.966C49.1092 3.966 49.7252 4.61 49.7252 5.94V10H51.4752V6.206C51.4752 4.722 52.2732 3.966 53.4212 3.966C54.4852 3.966 55.1012 4.61 55.1012 5.94V10H56.8512V5.716C56.8512 3.462 55.5912 2.44 53.7852 2.44ZM61.3975 10.098C63.4975 10.098 64.7855 9.188 64.7855 7.788C64.7855 4.862 60.1655 6.206 60.1655 4.694C60.1655 4.204 60.6695 3.854 61.7335 3.854C62.4475 3.854 63.1615 3.994 63.8755 4.414L64.5475 3.084C63.8755 2.678 62.7415 2.44 61.7475 2.44C59.7315 2.44 58.4575 3.364 58.4575 4.778C58.4575 7.76 63.0775 6.416 63.0775 7.844C63.0775 8.362 62.6155 8.67 61.5095 8.67C60.5715 8.67 59.5635 8.362 58.9055 7.928L58.2335 9.258C58.9055 9.734 60.1515 10.098 61.3975 10.098Z" fill="url(#paint0_linear)"/>
<defs>
<linearGradient id="paint0_linear" x1="32.5" y1="-4" x2="32.5" y2="13" gradientUnits="userSpaceOnUse">
<stop stop-color="#FCA963"/>
<stop offset="1" stop-color="#FD4857"/>
</linearGradient>
</defs>
</svg>
