<svg width="14" height="7" viewBox="0 0 14 7" fill="none" xmlns="http://www.w3.org/2000/svg">
<path d="M0.75 0.950902C0.750879 0.856512 0.771909 0.76339 0.8118 0.677842C0.851692 0.592294 0.909441 0.516229 0.98118 0.454891C1.13676 0.322611 1.33421 0.25 1.5384 0.25C1.7426 0.25 1.9403 0.322611 2.09588 0.454891L7.00025 4.81L11.9046 0.454891C12.0602 0.322611 12.2577 0.25 12.4619 0.25C12.666 0.25 12.8635 0.322611 13.0191 0.454891C13.0913 0.515522 13.1496 0.591325 13.1895 0.676824C13.2293 0.762323 13.25 0.855544 13.25 0.949885C13.25 1.04423 13.2293 1.13732 13.1895 1.22282C13.1496 1.30832 13.0913 1.38412 13.0191 1.44475L7.55849 6.29574C7.40273 6.42763 7.20535 6.5 7.00127 6.5C6.79719 6.5 6.59956 6.42763 6.44379 6.29574L0.98118 1.44475C0.909704 1.38364 0.852191 1.30799 0.812309 1.22282C0.772428 1.13765 0.751176 1.04494 0.75 0.950902Z" fill="white"/>
</svg>
