<svg width="24" height="24" viewBox="0 0 24 24" fill="none" xmlns="http://www.w3.org/2000/svg">
<path d="M18.75 9H18V6C18 2.691 15.309 0 12 0C8.69099 0 5.99999 2.691 5.99999 6V9H5.24999C4.00999 9 2.99999 10.009 2.99999 11.25V21.75C2.99999 22.991 4.00999 24 5.24999 24H18.75C19.99 24 21 22.991 21 21.75V11.25C21 10.009 19.99 9 18.75 9ZM7.99999 6C7.99999 3.794 9.79399 2 12 2C14.206 2 16 3.794 16 6V9H7.99999V6ZM13 16.722V19C13 19.552 12.553 20 12 20C11.447 20 11 19.552 11 19V16.722C10.405 16.375 9.99999 15.737 9.99999 15C9.99999 13.897 10.897 13 12 13C13.103 13 14 13.897 14 15C14 15.737 13.595 16.375 13 16.722Z" fill="#898989"/>
</svg>
