<svg width="24" height="25" viewBox="0 0 24 25" fill="none" xmlns="http://www.w3.org/2000/svg">
<path d="M17.4867 9H16.8333V6C16.8333 2.691 14.4889 0 11.6061 0C8.72322 0 6.37878 2.691 6.37878 6V9H5.72538C4.64507 9 3.76515 10.009 3.76515 11.25V21.75C3.76515 22.991 4.64507 24 5.72538 24H17.4867C18.567 24 19.447 22.991 19.447 21.75V11.25C19.447 10.009 18.567 9 17.4867 9ZM8.12121 6C8.12121 3.794 9.68416 2 11.6061 2C13.528 2 15.0909 3.794 15.0909 6V9H8.12121V6ZM12.4773 16.722V19C12.4773 19.552 12.0878 20 11.6061 20C11.1243 20 10.7348 19.552 10.7348 19V16.722C10.2165 16.375 9.86363 15.737 9.86363 15C9.86363 13.897 10.6451 13 11.6061 13C12.567 13 13.3485 13.897 13.3485 15C13.3485 15.737 12.9956 16.375 12.4773 16.722Z" fill="#898989"/>
<g clip-path="url(#clip0)">
<path d="M18.7492 9.26318H17.9992V6.26318C17.9992 2.95418 15.3082 0.263184 11.9992 0.263184C8.69017 0.263184 5.99917 2.95418 5.99917 6.26318V9.26318H5.24917C4.00917 9.26318 2.99917 10.2722 2.99917 11.5132V22.0132C2.99917 23.2542 4.00917 24.2632 5.24917 24.2632H18.7492C19.9892 24.2632 20.9992 23.2542 20.9992 22.0132V11.5132C20.9992 10.2722 19.9892 9.26318 18.7492 9.26318ZM7.99917 6.26318C7.99917 4.05718 9.79317 2.26318 11.9992 2.26318C14.2052 2.26318 15.9992 4.05718 15.9992 6.26318V9.26318H7.99917V6.26318ZM12.9992 16.9852V19.2632C12.9992 19.8152 12.5522 20.2632 11.9992 20.2632C11.4462 20.2632 10.9992 19.8152 10.9992 19.2632V16.9852C10.4042 16.6382 9.99917 16.0002 9.99917 15.2632C9.99917 14.1602 10.8962 13.2632 11.9992 13.2632C13.1022 13.2632 13.9992 14.1602 13.9992 15.2632C13.9992 16.0002 13.5942 16.6382 12.9992 16.9852Z" fill="#898989"/>
</g>
<defs>
<clipPath id="clip0">
<rect width="24" height="24" fill="white" transform="translate(-0.000823975 0.263184)"/>
</clipPath>
</defs>
</svg>
